<?xml version="1.0" encoding="UTF-8"?>
<svg id="Camada_1" data-name="Camada 1" xmlns="http://www.w3.org/2000/svg" viewBox="0 0 290 290">
  <defs>
    <style>
      .cls-1 {
        fill: #f4983a;
      }

      .cls-2 {
        fill: #f4973a;
      }

      .cls-3 {
        fill: #fdcd68;
      }

      .cls-4 {
        fill: #62398e;
      }

      .cls-5 {
        fill: #381537;
      }
    </style>
  </defs>
  <circle class="cls-2" cx="145" cy="145" r="145"/>
  <circle class="cls-5" cx="145" cy="145" r="140"/>
  <g>
    <polygon class="cls-1" points="185.63 101.16 176.63 110.16 148.63 83.16 148.63 65.16 185.63 101.16"/>
    <polygon class="cls-1" points="167.13 192.66 167.13 229.66 148.63 211.16 148.63 192.69 130.62 174.63 130.63 156.16 167.13 192.66"/>
    <polygon class="cls-3" points="184.63 195.16 184.63 211.16 168.63 227.16 168.63 211.16 184.63 195.16"/>
    <polygon class="cls-1" points="94.13 119.66 94.13 192.66 75.63 174.16 75.63 101.16 94.13 119.66"/>
    <path class="cls-3" d="M221.63,101.16L148.63,28.16l-73,73,18.5,18.5v73l18-18v-55l36.5-36.5v-18l37,36-55,55,36.5,36.5v37l18.5-18.5v-37l-9-9,45-45v-19ZM184.63,211.16l-16,16v-16l16-16v16ZM164.63,156.16l18,18-15.5,15.5-33.5-33.5,55-55-40-39-54.49,54.49-15-15L148.63,31.16l71,70-55,55Z"/>
    <polygon class="cls-4" points="164.63 156.16 182.63 174.16 167.13 189.66 133.63 156.16 188.63 101.16 148.63 62.16 94.14 116.65 79.14 101.65 148.63 31.16 219.63 101.16 164.63 156.16"/>
    <polygon class="cls-4" points="184.63 195.16 184.63 211.16 168.63 227.16 168.63 211.16 184.63 195.16"/>
  </g>
  <g>
    <path class="cls-1" d="M81.53,240.3c1.41.96,1.67,3.03.57,4.64l-1.86,2.72,1.51,1.03,4.75-6.96c.18-.27.14-.62-.1-.78l-9.02-6.15c-.24-.16-.58-.07-.77.2l-7,10.26c-.18.27-.14.62.1.78l11.57,7.89c-.75,1.09-.84,1.23-1.64,2.41l-11.57-7.89c-1.41-.96-1.67-3.03-.57-4.64l7-10.26c1.1-1.61,3.11-2.12,4.53-1.16l9.02,6.15c1.41.96,1.67,3.03.57,4.64l-6.09,8.92-7.94-5.41c-1.41-.96-1.67-3.03-.57-4.64l1.22-1.78c1.1-1.61,3.12-2.12,4.53-1.16l1.76,1.2ZM78.52,246.48l2.16-3.17c.18-.27.14-.62-.1-.78l-2.55-1.74c-.24-.16-.58-.07-.77.2l-1.83,2.68c-.18.27-.14.62.1.78l2.98,2.03Z"/>
    <path class="cls-1" d="M100.28,249.13l-1.29,2.61-6.89-3.41c-.25-.13-.59.01-.73.3l-5.38,10.89-2.3-1.14,1.56-3.15,3.83-7.74c.86-1.74,2.79-2.54,4.32-1.78l6.89,3.41Z"/>
    <path class="cls-1" d="M111.72,253.23c1.62.56,2.4,2.49,1.77,4.32l-2.82,8.16c-.63,1.84-2.45,2.87-4.06,2.31l-7.4-2.56c-1.62-.56-2.4-2.49-1.77-4.32l2.82-8.16c.63-1.84,2.45-2.87,4.06-2.31l7.4,2.56ZM103.36,253.43c-.27-.09-.58.08-.69.39l-2.82,8.16c-.11.31.03.64.3.73l7.4,2.56c.27.09.58-.08.69-.39l2.82-8.16c.11-.31-.03-.64-.3-.73l-7.4-2.56Z"/>
    <path class="cls-1" d="M129.93,260.91l-1.64,8.48c-.37,1.91-2.02,3.18-3.7,2.86l-10.72-2.07,3.95-20.41,2.52.49-.97,5.04,8.2,1.58c1.68.32,2.73,2.12,2.36,4.03ZM127.42,260.43c.06-.32-.12-.63-.4-.68l-7.69-1.49c-.28-.05-.56.17-.63.48l-1.64,8.48c-.06.32.12.63.4.68l7.69,1.49c.28.05.56-.17.63-.48l1.64-8.48Z"/>
    <path class="cls-1" d="M142.95,258.18c1.71.09,3,1.72,2.9,3.66l-.44,8.63c-.1,1.94-1.55,3.43-3.26,3.35l-7.82-.4c-1.71-.09-3-1.72-2.9-3.66l.44-8.63c.1-1.94,1.55-3.43,3.26-3.35l7.82.4ZM134.98,260.69c-.28-.01-.54.24-.55.57l-.44,8.63c-.02.32.21.61.49.62l7.82.4c.28.01.54-.24.55-.57l.44-8.63c.02-.32-.21-.61-.49-.62l-7.82-.4Z"/>
    <path class="cls-1" d="M150.64,260.91l.52,9.22c.02.32.27.58.55.56l5.12-.29.17,2.91-5.12.29c-1.71.1-3.17-1.39-3.28-3.33l-.49-8.63-.49-8.63,2.56-.15.29,5.12,5.64-.32.16,2.91-5.64.32Z"/>
    <path class="cls-1" d="M171.98,258.72l2.07,11.97-10.75,1.87c-1.68.29-3.31-1.01-3.64-2.93l-.99-5.69,11.27-1.96-.49-2.82c-.05-.32-.33-.54-.62-.5l-10.75,1.87-.5-2.87,10.75-1.87c1.68-.29,3.31,1.02,3.64,2.93ZM170.44,264.85l-8.74,1.52.49,2.82c.05.32.33.54.62.5l8.23-1.43-.59-3.4Z"/>
    <path class="cls-1" d="M180.47,268.85l-2.47.68-.77-2.81,2.47-.68.77,2.81Z"/>
    <path class="cls-1" d="M191.95,248.21l4.34,11.35c.69,1.82-.03,3.77-1.63,4.38l-7.32,2.79c-1.6.61-3.44-.36-4.14-2.18l-4.34-11.35,2.39-.91,4.34,11.35c.12.3.43.47.7.37l7.32-2.79c.27-.1.39-.44.28-.74l-4.34-11.35,2.39-.91Z"/>
    <path class="cls-1" d="M195.16,244.64l.74,1.44,5.02-2.59,1.34,2.59-5.02,2.59,5.84,11.32-2.28,1.17-3.96-7.68-3.96-7.68c-.89-1.73-.38-3.75,1.13-4.53l4.56-2.35,1.34,2.59-4.55,2.35c-.25.13-.34.48-.19.77Z"/>
    <path class="cls-1" d="M216.02,238.54l-2.13,1.43-.33-.49c-.18-.27-.53-.36-.77-.2l-6.5,4.36c-.24.16-.28.52-.1.78l1.26,1.88c.18.27.53.36.76.2l6.5-4.36c1.42-.95,3.44-.42,4.52,1.2l1.26,1.88c1.08,1.62.81,3.68-.61,4.63l-6.51,4.36c-1.42.95-3.44.42-4.52-1.2l-.33-.49,2.13-1.43.33.49c.18.27.53.36.76.2l6.51-4.36c.24-.16.28-.52.1-.78l-1.26-1.88c-.18-.27-.53-.36-.76-.2l-6.51,4.36c-1.42.95-3.43.42-4.52-1.2l-1.26-1.88c-1.08-1.61-.81-3.68.61-4.63l6.51-4.36c1.42-.95,3.44-.42,4.52,1.2l.33.49Z"/>
    <path class="cls-1" d="M234.32,233.96l1.95,2.17-8.11,7.3c-1.27,1.14-3.34.9-4.64-.55l-5.78-6.43c-1.3-1.45-1.32-3.53-.05-4.67l8.08-7.27,1.95,2.17-8.08,7.27c-.21.19-.21.55,0,.79l5.78,6.43c.22.24.57.28.79.09l8.11-7.3Z"/>
  </g>
</svg>