<svg xmlns="http://www.w3.org/2000/svg" viewBox="0 0 146 248.57"><defs><style>.cls-1{fill:#f49739;}.cls-2{fill:#fdcc68;}.cls-3{fill:#639;}</style></defs><title>Robota_colorido</title><g id="Layer_4" data-name="Layer 4"><polygon class="cls-1" points="110 73 101 82 73 55 73 37 110 73"/><polygon class="cls-1" points="91.5 164.5 91.5 201.5 73 183 73 164.53 54.99 146.47 55 128 91.5 164.5"/><polygon class="cls-2" points="109 167 109 183 93 199 93 183 109 167"/><polygon class="cls-1" points="18.5 91.5 18.5 164.5 0 146 0 73 18.5 91.5"/><path class="cls-2" d="M146,73,73,0,0,73,18.5,91.5v73l18-18v-55L73,55V37l37,36L55,128l36.5,36.5v37L110,183V146l-9-9,45-45ZM109,183,93,199V183l16-16ZM89,128l18,18L91.5,161.5,58,128l55-55L73,34,18.51,88.49l-15-15L73,3l71,70Z"/><polygon class="cls-3" points="89 128 107 146 91.5 161.5 58 128 113 73 73 34 18.51 88.49 3.51 73.49 73 3 144 73 89 128"/><polygon class="cls-3" points="109 167 109 183 93 199 93 183 109 167"/><path class="cls-3" d="M.07,248.57V230.12a5.13,5.13,0,0,1,1.56-3.77,5.14,5.14,0,0,1,3.77-1.56H18.69v4.43H6a1.77,1.77,0,0,0-1.21.3,1.73,1.73,0,0,0-.31,1.21v17.84Z"/><path class="cls-3" d="M26.35,248.57A5.33,5.33,0,0,1,21,243.24V230.12a5.33,5.33,0,0,1,5.33-5.33H39.88a5.31,5.31,0,0,1,5.33,5.33v13.12a5.31,5.31,0,0,1-5.33,5.33Zm.62-4.43h12.3a1.63,1.63,0,0,0,1.19-.31,1.81,1.81,0,0,0,.29-1.21V230.73a1.85,1.85,0,0,0-.29-1.21,1.69,1.69,0,0,0-1.19-.3H27a1.79,1.79,0,0,0-1.21.3,1.78,1.78,0,0,0-.31,1.21v11.89a1.74,1.74,0,0,0,.31,1.21A1.73,1.73,0,0,0,27,244.14Z"/><path class="cls-3" d="M49.52,248.57V217H54v7.79H68.38a5.33,5.33,0,0,1,5.33,5.33v13.12a5.33,5.33,0,0,1-5.33,5.33Zm5.94-4.43h12.3a1.23,1.23,0,0,0,1.52-1.52V230.73a1.73,1.73,0,0,0-.31-1.21,1.75,1.75,0,0,0-1.21-.3H55.46A1.21,1.21,0,0,0,54,230.73v11.89a1.75,1.75,0,0,0,.3,1.21A1.73,1.73,0,0,0,55.46,244.14Z"/><path class="cls-3" d="M82.07,248.57a5.33,5.33,0,0,1-5.33-5.33V230.12a5.33,5.33,0,0,1,5.33-5.33H95.6a5.31,5.31,0,0,1,5.33,5.33v13.12a5.31,5.31,0,0,1-5.33,5.33Zm.62-4.43H95a1.63,1.63,0,0,0,1.19-.31,1.82,1.82,0,0,0,.28-1.21V230.73a1.86,1.86,0,0,0-.28-1.21,1.69,1.69,0,0,0-1.19-.3H82.69a1.77,1.77,0,0,0-1.21.3,1.73,1.73,0,0,0-.31,1.21v11.89a1.23,1.23,0,0,0,1.52,1.52Z"/><path class="cls-3" d="M109.58,248.57a5.33,5.33,0,0,1-5.33-5.33v-26h4.43v7.5h9.76v4.43h-9.76v13.4a1.23,1.23,0,0,0,1.52,1.52h8.24v4.43Z"/><path class="cls-3" d="M127,248.57a5.33,5.33,0,0,1-5.33-5.33v-8.77h19.72v-3.74a1.85,1.85,0,0,0-.29-1.21,1.69,1.69,0,0,0-1.19-.3H121.64v-4.43H140.5a5.33,5.33,0,0,1,5.33,5.33v18.45Zm.61-4.43h13.78v-5.53H126.07v4a1.75,1.75,0,0,0,.3,1.21A1.73,1.73,0,0,0,127.58,244.14Z"/></g></svg>